<?xml version="1.0" encoding="UTF-8" standalone="no"?>
<!-- Created with Inkscape (http://www.inkscape.org/) -->
<svg
   xmlns:dc="http://purl.org/dc/elements/1.1/"
   xmlns:cc="http://creativecommons.org/ns#"
   xmlns:rdf="http://www.w3.org/1999/02/22-rdf-syntax-ns#"
   xmlns:svg="http://www.w3.org/2000/svg"
   xmlns="http://www.w3.org/2000/svg"
   xmlns:sodipodi="http://sodipodi.sourceforge.net/DTD/sodipodi-0.dtd"
   xmlns:inkscape="http://www.inkscape.org/namespaces/inkscape"
   width="744.09448819"
   height="1052.3622047"
   id="svg2"
   sodipodi:version="0.32"
   inkscape:version="0.46"
   sodipodi:docname="adrift.svg"
   inkscape:output_extension="org.inkscape.output.svg.inkscape">
  <defs
     id="defs4">
    <inkscape:perspective
       sodipodi:type="inkscape:persp3d"
       inkscape:vp_x="0 : 526.18109 : 1"
       inkscape:vp_y="0 : 1000 : 0"
       inkscape:vp_z="744.09448 : 526.18109 : 1"
       inkscape:persp3d-origin="372.04724 : 350.78739 : 1"
       id="perspective10" />
  </defs>
  <sodipodi:namedview
     id="base"
     pagecolor="#ffffff"
     bordercolor="#666666"
     borderopacity="1.0"
     gridtolerance="10000"
     guidetolerance="10"
     objecttolerance="10"
     inkscape:pageopacity="0.0"
     inkscape:pageshadow="2"
     inkscape:zoom="1.677971"
     inkscape:cx="330.45856"
     inkscape:cy="571.27244"
     inkscape:document-units="px"
     inkscape:current-layer="layer1"
     showgrid="false"
     inkscape:window-width="1428"
     inkscape:window-height="1038"
     inkscape:window-x="4"
     inkscape:window-y="22" />
  <metadata
     id="metadata7">
    <rdf:RDF>
      <cc:Work
         rdf:about="">
        <dc:format>image/svg+xml</dc:format>
        <dc:type
           rdf:resource="http://purl.org/dc/dcmitype/StillImage" />
      </cc:Work>
    </rdf:RDF>
  </metadata>
  <g
     inkscape:label="Layer 1"
     inkscape:groupmode="layer"
     id="layer1">
    <rect
       style="opacity:1;fill:#000000;fill-opacity:1;stroke:none;stroke-width:1.79999995;stroke-miterlimit:4;stroke-dasharray:none;stroke-opacity:1"
       id="rect2437"
       width="639.56873"
       height="151.7061"
       x="46.065434"
       y="252.05173" />
    <text
       xml:space="preserve"
       style="font-size:12px;font-style:normal;font-weight:normal;fill:#000000;fill-opacity:1;stroke:none;stroke-width:1px;stroke-linecap:butt;stroke-linejoin:miter;stroke-opacity:1;font-family:Bitstream Vera Sans"
       x="126.26907"
       y="415.96609"
       id="text2385"><tspan
         sodipodi:role="line"
         id="tspan2387"
         x="126.26907"
         y="415.96609" /></text>
    <path
       style="font-size:12px;font-style:normal;font-weight:normal;fill:#ffffff;fill-opacity:1;stroke:none;stroke-width:1px;stroke-linecap:butt;stroke-linejoin:miter;stroke-opacity:1;font-family:Bitstream Vera Sans"
       d="M 203.0769,301.01355 L 237.1144,301.01355 C 243.67693,301.01355 249.32067,303.3573 254.04565,308.0448 C 258.73316,312.76979 261.07691,318.41353 261.0769,324.97605 L 261.0769,360.97605 C 261.07691,367.61348 258.71441,373.27598 253.9894,377.96355 C 249.26442,382.68847 243.63943,385.05097 237.1144,385.05105 L 203.0769,384.99342 L 203.0769,301.01355 M 227.0394,371.31153 L 239.0769,371.31153 C 242.37694,371.31146 245.20819,370.13021 247.57065,367.76778 C 249.93318,365.40522 251.11443,362.57397 251.1144,359.27403 L 251.1144,319.27403 C 251.11443,316.04901 249.95193,313.25526 247.6269,310.89278 C 245.26444,308.53027 242.41444,307.34902 239.0769,307.34903 C 235.73945,307.34902 232.9082,308.53027 230.58315,310.89278 C 228.22071,313.25526 227.03946,316.04901 227.0394,319.27403 L 227.0394,371.31153"
       id="text2389"
       sodipodi:nodetypes="cccccccccccscccsccc" />
    <path
       style="font-size:12px;font-style:normal;font-weight:normal;fill:#ffffff;fill-opacity:1;stroke:none;stroke-width:1px;stroke-linecap:butt;stroke-linejoin:miter;stroke-opacity:1;font-family:Bitstream Vera Sans"
       d="M 312.06104,301.08572 L 346.09854,301.08572 C 352.66107,301.08572 358.30481,303.42947 363.02979,308.11697 C 367.7173,312.84196 370.06105,318.4857 370.06104,325.04822 L 370.06104,339.04822 C 370.20653,353.63569 356.15599,357.42654 346.09854,357.12322 C 346.09854,357.12322 369.5285,354.28285 369.87916,374.41813 L 370.06104,384.8618 L 360.09854,384.8618 L 360.09854,369.38416 C 360.02566,362.7704 353.04159,357.94509 348.11341,357.97847 C 343.25428,358.01138 335.91894,361.4793 336.02354,368.92258 L 336.02354,385.08572 L 312.06104,385.08572 L 312.06104,301.08572 M 336.02354,351.08572 L 348.06104,351.08572 C 351.36108,351.08565 354.19233,349.9044 356.55479,347.54197 C 358.91732,345.17941 360.09857,342.34816 360.09854,339.04822 L 360.09854,319.89103 C 360.09857,316.66601 358.93607,313.87226 356.61104,311.50978 C 354.24858,309.14727 351.39858,307.96602 348.06104,307.96603 C 341.21246,308.1327 336.52227,313.26636 336.02354,319.89103 L 336.02354,351.08572"
       id="path2416"
       sodipodi:nodetypes="ccccccscccsccccccscccccc" />
    <path
       style="font-size:12px;font-style:normal;font-weight:normal;fill:#ffffff;fill-opacity:1;stroke:none;stroke-width:1px;stroke-linecap:butt;stroke-linejoin:miter;stroke-opacity:1;font-family:Bitstream Vera Sans"
       d="M 496.17391,301.07354 L 496.17391,385.07354 L 520.14266,385.07354 L 520.14266,366.91729 C 520.03806,359.47401 527.37727,356.0127 532.23641,355.97979 L 538.62509,355.98167 L 538.63501,349.17682 L 532.17391,349.07354 L 520.14266,349.07354 L 520.14266,319.56737 C 520.64139,312.9427 525.32532,307.79654 532.17391,307.62987 L 548.67391,307.69612 C 548.42971,300.20792 543.29305,301.06222 535.89749,301.07354 L 496.17391,301.07354 z"
       id="path2418"
       sodipodi:nodetypes="cccccccccccccc" />
    <path
       style="font-size:12px;font-style:normal;font-weight:normal;fill:#ffffff;fill-opacity:1;stroke:none;stroke-width:1px;stroke-linecap:butt;stroke-linejoin:miter;stroke-opacity:1;font-family:Bitstream Vera Sans"
       d="M 595.81282,301.30106 L 595.81282,307.6815 L 611.21686,307.6815 L 611.21686,385.30106 L 635.18561,385.30106 L 635.18561,319.79657 C 635.68434,313.1719 640.36827,307.84817 647.21686,307.6815 L 650.94044,307.6815 L 650.94044,301.30106 L 595.81282,301.30106 z"
       id="path2423"
       sodipodi:nodetypes="cccccccccc" />
    <path
       sodipodi:nodetypes="cccccccccc"
       id="path2439"
       d="M 420.98315,289.08855 L 420.98315,265.4343 L 444.94565,265.4343 L 444.94565,289.08855 L 420.98315,289.08855 M 420.98315,385.05105 L 420.98315,301.01355 L 444.94565,301.01355 L 444.94565,385.05105 L 420.98315,385.05105"
       style="font-size:12px;font-style:normal;font-weight:normal;fill:#ffffff;fill-opacity:1;stroke:none;stroke-width:1px;stroke-linecap:butt;stroke-linejoin:miter;stroke-opacity:1;font-family:Bitstream Vera Sans" />
    <path
       sodipodi:nodetypes="ccccccccccscccsccc"
       id="path2509"
       d="M 127.20815,303.03386 C 133.77059,303.03394 139.39558,303.39488 144.08315,308.1573 C 148.80807,312.88237 151.17057,318.52612 151.17065,325.08855 L 151.17065,385.05105 L 127.20815,385.05105 L 127.20815,373.01355 C 126.27059,381.03855 122.2581,385.05105 115.17065,385.05105 L 66.833277,385.17129 M 127.20815,349.05105 L 127.29248,323.62593 C 123.99244,323.62596 111.00182,346.42971 106.6769,352.5948 C 104.78693,355.28891 103.13312,357.71358 103.13316,360.97605 L 103.13316,361.08855 C 103.13312,364.31357 104.29562,367.10732 106.62065,369.4698 C 108.98311,371.83231 111.83311,373.01356 115.17065,373.01355 C 118.5081,373.01356 121.33935,371.83231 123.6644,369.4698 C 126.02685,367.10732 127.20809,364.31357 127.20815,361.08855 L 127.20815,349.05105"
       style="font-size:12px;font-style:normal;font-weight:normal;fill:#ffffff;fill-opacity:1;stroke:none;stroke-width:1px;stroke-linecap:butt;stroke-linejoin:miter;stroke-opacity:1;font-family:Bitstream Vera Sans" />
    <rect
       style="opacity:1;fill:#000000;fill-opacity:1;stroke:none;stroke-width:1.79999995;stroke-miterlimit:4;stroke-dasharray:none;stroke-opacity:1"
       id="rect2453"
       width="639.56873"
       height="136.2112"
       x="40.770153"
       y="516.42969" />
    <path
       style="font-size:12px;font-style:normal;font-weight:normal;fill:#ffffff;fill-opacity:1;stroke:none;stroke-width:1px;stroke-linecap:butt;stroke-linejoin:miter;stroke-opacity:1;font-family:Bitstream Vera Sans"
       d="M 199.78161,573.3915 L 233.81911,573.3915 C 240.38164,573.3915 246.02538,575.15525 250.75036,578.68274 C 255.43787,582.23844 257.78162,586.48553 257.78161,591.42403 L 257.78161,618.51515 C 257.78162,623.51003 255.41912,627.77124 250.69411,631.29878 C 245.96913,634.85443 240.34414,636.63228 233.81911,636.63234 L 199.78161,636.58898 L 199.78161,573.3915 M 223.74411,626.29293 L 235.78161,626.29293 C 239.08165,626.29287 241.9129,625.40395 244.27536,623.62614 C 246.63789,621.84824 247.81914,619.71764 247.81911,617.23433 L 247.81911,587.13308 C 247.81914,584.70615 246.65664,582.60377 244.33161,580.82593 C 241.96915,579.04807 239.11915,578.15914 235.78161,578.15915 C 232.44416,578.15914 229.61291,579.04807 227.28786,580.82593 C 224.92542,582.60377 223.74417,584.70615 223.74411,587.13308 L 223.74411,626.29293"
       id="path2455"
       sodipodi:nodetypes="cccccccccccscccsccc" />
    <path
       style="font-size:12px;font-style:normal;font-weight:normal;fill:#ffffff;fill-opacity:1;stroke:none;stroke-width:1px;stroke-linecap:butt;stroke-linejoin:miter;stroke-opacity:1;font-family:Bitstream Vera Sans"
       d="M 308.76575,573.44581 L 342.80325,573.44581 C 349.36578,573.44581 355.00952,575.20956 359.7345,578.73705 C 364.42201,582.29275 366.76576,586.53984 366.76575,591.47834 L 366.76575,602.01378 C 366.91124,612.9913 352.8607,615.84404 342.80325,615.61578 C 342.80325,615.61578 366.23321,613.47831 366.58387,628.63074 L 366.76575,636.48993 L 356.80325,636.48993 L 356.80325,624.84252 C 356.73037,619.86546 349.7463,616.23426 344.81812,616.25938 C 339.95899,616.28415 332.62365,618.89387 332.72825,624.49517 L 332.72825,636.65843 L 308.76575,636.65843 L 308.76575,573.44581 M 332.72825,611.07237 L 344.76575,611.07237 C 348.06579,611.07232 350.89704,610.18339 353.2595,608.40559 C 355.62203,606.62769 356.80328,604.49709 356.80325,602.01378 L 356.80325,587.59739 C 356.80328,585.17047 355.64078,583.06808 353.31575,581.29024 C 350.95329,579.51238 348.10329,578.62345 344.76575,578.62346 C 337.91717,578.74888 333.22698,582.61212 332.72825,587.59739 L 332.72825,611.07237"
       id="path2457"
       sodipodi:nodetypes="ccccccscccsccccccscccccc" />
    <path
       style="font-size:12px;font-style:normal;font-weight:normal;fill:#ffffff;fill-opacity:1;stroke:none;stroke-width:1px;stroke-linecap:butt;stroke-linejoin:miter;stroke-opacity:1;font-family:Bitstream Vera Sans"
       d="M 492.87862,573.43664 L 492.87862,636.64927 L 516.84737,636.64927 L 516.84737,622.98612 C 516.74277,617.38482 524.08198,614.78008 528.94112,614.75531 L 535.3298,614.75673 L 535.33972,609.63587 L 528.87862,609.55814 L 516.84737,609.55814 L 516.84737,587.35383 C 517.3461,582.36856 522.03003,578.49591 528.87862,578.37049 L 545.37862,578.42034 C 545.13442,572.78524 539.99776,573.42813 532.6022,573.43664 L 492.87862,573.43664 z"
       id="path2459"
       sodipodi:nodetypes="cccccccccccccc" />
    <path
       style="font-size:12px;font-style:normal;font-weight:normal;fill:#ffffff;fill-opacity:1;stroke:none;stroke-width:1px;stroke-linecap:butt;stroke-linejoin:miter;stroke-opacity:1;font-family:Bitstream Vera Sans"
       d="M 592.51753,573.60786 L 592.51753,578.40934 L 607.92157,578.40934 L 607.92157,636.82049 L 631.89032,636.82049 L 631.89032,587.52631 C 632.38905,582.54104 637.07298,578.53477 643.92157,578.40934 L 647.64515,578.40934 L 647.64515,573.60786 L 592.51753,573.60786 z"
       id="path2461"
       sodipodi:nodetypes="cccccccccc" />
    <path
       sodipodi:nodetypes="cccccccccc"
       id="path2463"
       d="M 417.68786,551.4665 L 417.68786,527.81225 L 441.65036,527.81225 L 441.65036,551.4665 L 417.68786,551.4665 M 417.68786,637.429 L 417.68786,573.3915 L 441.65036,573.3915 L 441.65036,637.429 L 417.68786,637.429"
       style="font-size:12px;font-style:normal;font-weight:normal;fill:#ffffff;fill-opacity:1;stroke:none;stroke-width:1px;stroke-linecap:butt;stroke-linejoin:miter;stroke-opacity:1;font-family:Bitstream Vera Sans" />
    <path
       sodipodi:nodetypes="ccccccccccscccsccc"
       id="path2465"
       d="M 123.91286,574.91185 C 130.4753,574.91191 136.10029,575.18353 140.78786,578.7674 C 145.51278,582.32316 147.87528,586.57026 147.87536,591.50869 L 147.87536,636.63234 L 123.91286,636.63234 L 123.91286,627.57375 C 122.9753,633.61281 118.96281,636.63234 111.87536,636.63234 L 63.537983,636.72283 M 123.91286,609.54122 L 123.99719,590.40802 C 120.69715,590.40805 107.70653,607.56858 103.38161,612.208 C 101.49164,614.2354 99.837823,616.06004 99.837863,618.51515 L 99.837863,618.59981 C 99.837823,621.02674 101.00032,623.12913 103.32536,624.90697 C 105.68782,626.68483 108.53782,627.57376 111.87536,627.57375 C 115.21281,627.57376 118.04406,626.68483 120.36911,624.90697 C 122.73156,623.12913 123.9128,621.02674 123.91286,618.59981 L 123.91286,609.54122"
       style="font-size:12px;font-style:normal;font-weight:normal;fill:#ffffff;fill-opacity:1;stroke:none;stroke-width:1px;stroke-linecap:butt;stroke-linejoin:miter;stroke-opacity:1;font-family:Bitstream Vera Sans" />
  </g>
</svg>
