<?xml version="1.0" encoding="UTF-8" standalone="no"?>
<!-- Created with Inkscape (http://www.inkscape.org/) -->
<svg
   xmlns:dc="http://purl.org/dc/elements/1.1/"
   xmlns:cc="http://creativecommons.org/ns#"
   xmlns:rdf="http://www.w3.org/1999/02/22-rdf-syntax-ns#"
   xmlns:svg="http://www.w3.org/2000/svg"
   xmlns="http://www.w3.org/2000/svg"
   xmlns:sodipodi="http://sodipodi.sourceforge.net/DTD/sodipodi-0.dtd"
   xmlns:inkscape="http://www.inkscape.org/namespaces/inkscape"
   width="744.09448819"
   height="1052.3622047"
   id="svg2467"
   sodipodi:version="0.32"
   inkscape:version="0.46"
   sodipodi:docname="credits.svg"
   inkscape:output_extension="org.inkscape.output.svg.inkscape">
  <defs
     id="defs2469">
    <inkscape:perspective
       sodipodi:type="inkscape:persp3d"
       inkscape:vp_x="0 : 526.18109 : 1"
       inkscape:vp_y="0 : 1000 : 0"
       inkscape:vp_z="744.09448 : 526.18109 : 1"
       inkscape:persp3d-origin="372.04724 : 350.78739 : 1"
       id="perspective2475" />
  </defs>
  <sodipodi:namedview
     id="base"
     pagecolor="#ffffff"
     bordercolor="#666666"
     borderopacity="1.0"
     gridtolerance="10000"
     guidetolerance="10"
     objecttolerance="10"
     inkscape:pageopacity="0.0"
     inkscape:pageshadow="2"
     inkscape:zoom="0.7"
     inkscape:cx="533.70658"
     inkscape:cy="341.00023"
     inkscape:document-units="px"
     inkscape:current-layer="layer1"
     showgrid="false"
     showguides="true"
     inkscape:guide-bbox="true"
     inkscape:window-width="1280"
     inkscape:window-height="753"
     inkscape:window-x="-4"
     inkscape:window-y="-4" />
  <metadata
     id="metadata2472">
    <rdf:RDF>
      <cc:Work
         rdf:about="">
        <dc:format>image/svg+xml</dc:format>
        <dc:type
           rdf:resource="http://purl.org/dc/dcmitype/StillImage" />
      </cc:Work>
    </rdf:RDF>
  </metadata>
  <g
     inkscape:label="Layer 1"
     inkscape:groupmode="layer"
     id="layer1">
    <rect
       style="fill:#000000"
       id="rect2477"
       width="700.03571"
       height="456.29156"
       x="23.233509"
       y="393.72241" />
    <g
       id="g2563">
      <path
         style="font-size:12px;font-style:normal;font-weight:normal;fill:#ffffff;fill-opacity:1;stroke:none;stroke-width:1px;stroke-linecap:butt;stroke-linejoin:miter;stroke-opacity:1;font-family:Bitstream Vera Sans"
         d="M 442.18233,469.47268 L 486.80068,469.47268 C 495.40322,469.47268 502.80136,471.78471 508.99514,476.40875 C 515.1398,481.06976 518.21213,486.6371 518.21212,493.11077 L 518.21212,528.62339 C 518.21213,535.17097 515.11522,540.75682 508.9214,545.38092 C 502.72763,550.04188 495.35406,552.37239 486.80068,552.37246 L 442.18233,552.31562 L 442.18233,469.47268 M 473.59378,538.81896 L 489.37323,538.81896 C 493.69911,538.81888 497.41049,537.65363 500.50734,535.32318 C 503.60428,532.9926 505.15273,530.19969 505.15269,526.94442 L 505.15269,487.48595 C 505.15273,484.30459 503.62885,481.54866 500.58107,479.21817 C 497.48422,476.88764 493.74828,475.72238 489.37323,475.72239 C 484.99831,475.72238 481.28694,476.88764 478.23913,479.21817 C 475.14231,481.54866 473.59385,484.30459 473.59378,487.48595 L 473.59378,538.81896"
         id="path2497"
         sodipodi:nodetypes="cccccccccccscccsccc" />
      <path
         style="font-size:12px;font-style:normal;font-weight:normal;fill:#ffffff;fill-opacity:1;stroke:none;stroke-width:1px;stroke-linecap:butt;stroke-linejoin:miter;stroke-opacity:1;font-family:Bitstream Vera Sans"
         d="M 252.4588,469.50966 L 252.4588,552.37246 L 283.87844,552.37246 L 283.87844,534.46201 C 283.74132,527.1195 293.36199,523.70505 299.73163,523.67258 L 308.10629,523.67444 L 308.11928,516.96173 L 299.6497,516.85983 L 283.87844,516.85983 L 283.87844,487.75312 C 284.5322,481.21814 290.67217,476.14164 299.6497,475.97724 L 321.27886,476.04258 C 320.95875,468.65576 314.22532,469.4985 304.53079,469.50966 L 252.4588,469.50966 z"
         id="path2499"
         sodipodi:nodetypes="cccccccccccccc" />
      <path
         style="font-size:12px;font-style:normal;font-weight:normal;fill:#ffffff;fill-opacity:1;stroke:none;stroke-width:1px;stroke-linecap:butt;stroke-linejoin:miter;stroke-opacity:1;font-family:Bitstream Vera Sans"
         d="M 145.56819,469.50968 L 190.18654,469.50968 C 198.78909,469.50968 206.18723,471.8217 212.38101,476.44574 C 218.52567,481.10676 221.59799,486.67409 221.59798,493.14776 L 221.59798,506.95823 C 221.7887,521.3482 195.75436,524.61837 190.18654,524.78853 C 184.62129,524.95861 176.97964,525.1577 176.97964,536.42816 L 176.97964,552.37246 L 145.56819,552.37246 L 145.56819,469.50968 M 176.97964,518.83276 L 192.7591,518.83276 C 197.08498,518.83269 200.79635,517.66743 203.8932,515.33699 C 206.99014,513.00642 208.53859,510.2135 208.53855,506.95823 L 208.53855,488.06039 C 208.53859,484.87904 207.01472,482.1231 203.96694,479.79261 C 200.87009,477.46209 197.13414,476.29683 192.7591,476.29683 C 183.78158,476.46125 177.63341,481.5254 176.97964,488.06039 L 176.97964,518.83276"
         id="path2503"
         sodipodi:nodetypes="ccccczccccccscccccc" />
      <path
         style="font-size:12px;font-style:normal;font-weight:normal;fill:#ffffff;fill-opacity:1;stroke:none;stroke-width:1px;stroke-linecap:butt;stroke-linejoin:miter;stroke-opacity:1;font-family:Bitstream Vera Sans"
         d="M 345.15048,469.50966 L 345.15048,552.37246 L 376.57012,552.37246 C 376.57012,552.37246 405.58947,552.59227 413.39601,552.23799 C 412.7852,545.57069 408.72109,538.73508 397.08741,538.73508 C 391.1172,538.73508 376.57012,538.73508 376.57012,538.73508 L 376.57012,534.46201 C 376.43301,527.1195 386.05367,523.70505 392.42332,523.67258 L 400.79797,523.67444 L 400.81097,516.96173 L 392.34139,516.85983 L 376.57012,516.85983 L 376.57012,487.75312 C 377.22389,481.21814 383.36385,476.14164 392.34139,475.97724 L 413.97055,476.04258 C 413.65044,468.65576 406.917,469.4985 397.22248,469.50966 L 345.15048,469.50966 z"
         id="path2505"
         sodipodi:nodetypes="ccccscccccccccccc" />
      <path
         sodipodi:nodetypes="cccccccccsscc"
         id="path2507"
         d="M 81.807244,439.6878 L 81.807244,408.68043 L 113.21869,408.68043 L 113.21869,439.6878 L 81.807244,439.6878 M 51.95197,538.91418 C 61.166893,538.91418 81.807244,538.91418 81.807244,538.91418 L 81.807244,468.42837 L 113.21869,468.42837 C 113.21869,468.42837 113.21869,517.52258 113.21869,531.33928 C 113.21869,548.39892 101.9021,552.37246 86.426804,552.37246 C 83.755292,552.37246 77.521768,552.37246 77.521768,552.37246 L 33.369108,552.37246"
         style="font-size:12px;font-style:normal;font-weight:normal;fill:#ffffff;fill-opacity:1;stroke:none;stroke-width:1px;stroke-linecap:butt;stroke-linejoin:miter;stroke-opacity:1;font-family:Bitstream Vera Sans" />
    </g>
    <g
       id="g2570"
       transform="matrix(0.8491055,0,0,0.8491055,101.56997,144.23772)">
      <path
         style="font-size:12px;font-style:normal;font-weight:normal;fill:#ffffff;fill-opacity:1;stroke:none;stroke-width:1px;stroke-linecap:butt;stroke-linejoin:miter;stroke-opacity:1;font-family:Bitstream Vera Sans"
         d="M 133.48003,655.23577 L 178.09838,655.23577 C 186.70092,655.23577 194.09906,657.5478 200.29284,662.17184 C 206.4375,666.83285 209.50983,672.40019 209.50982,678.87386 L 209.50982,714.38648 C 209.50983,720.93406 206.41292,726.51991 200.2191,731.14401 C 194.02533,735.80497 186.65176,738.13548 178.09838,738.13555 L 133.48003,738.07871 L 133.48003,655.23577 M 164.89148,724.58205 L 180.67093,724.58205 C 184.99681,724.58197 188.70819,723.41672 191.80504,721.08627 C 194.90198,718.75569 196.45043,715.96278 196.45039,712.70751 L 196.45039,673.24904 C 196.45043,670.06768 194.92655,667.31175 191.87877,664.98126 C 188.78192,662.65073 185.04598,661.48547 180.67093,661.48548 C 176.29601,661.48547 172.58464,662.65073 169.53683,664.98126 C 166.44001,667.31175 164.89155,670.06768 164.89148,673.24904 L 164.89148,724.58205"
         id="path2511"
         sodipodi:nodetypes="cccccccccccscccsccc" />
      <path
         style="font-size:12px;font-style:normal;font-weight:normal;fill:#ffffff;fill-opacity:1;stroke:none;stroke-width:1px;stroke-linecap:butt;stroke-linejoin:miter;stroke-opacity:1;font-family:Bitstream Vera Sans"
         d="M 307.94204,655.27276 L 307.94204,738.13556 L 339.36168,738.13556 L 339.36168,720.22511 C 339.22456,712.8826 348.84523,709.46815 355.21487,709.43568 L 363.58953,709.43754 L 363.60252,702.72483 L 355.13294,702.62293 L 339.36168,702.62293 L 339.36168,673.51622 C 340.01544,666.98124 346.15541,661.90474 355.13294,661.74034 L 376.7621,661.80568 C 376.44199,654.41886 369.70856,655.2616 360.01403,655.27276 L 307.94204,655.27276 z"
         id="path2513"
         sodipodi:nodetypes="cccccccccccccc" />
      <path
         sodipodi:nodetypes="cccccccccc"
         id="path2515"
         d="M 386.86066,626.76972 L 386.86066,596.12525 L 417.90448,596.12525 L 417.90448,626.76972 L 386.86066,626.76972 M 386.86066,738.13556 L 386.86066,655.17391 L 417.90448,655.17391 L 417.90448,738.13556 L 386.86066,738.13556"
         style="font-size:12px;font-style:normal;font-weight:normal;fill:#ffffff;fill-opacity:1;stroke:none;stroke-width:1px;stroke-linecap:butt;stroke-linejoin:miter;stroke-opacity:1;font-family:Bitstream Vera Sans" />
      <path
         style="font-size:12px;font-style:normal;font-weight:normal;fill:#ffffff;fill-opacity:1;stroke:none;stroke-width:1px;stroke-linecap:butt;stroke-linejoin:miter;stroke-opacity:1;font-family:Bitstream Vera Sans"
         d="M 501.0132,655.28007 L 501.0132,661.57357 L 480.82251,661.57357 L 480.82251,738.13556 L 449.40558,738.13556 L 449.40558,673.52358 C 448.75191,666.98917 442.61253,661.73798 433.63577,661.57357 L 428.75509,661.57357 L 428.75509,655.28007 L 501.0132,655.28007 z"
         id="path2517"
         sodipodi:nodetypes="cccccccccc" />
      <path
         id="path2519"
         d="M 619.21875,655.1875 L 619.21875,702.71875 L 626.71875,702.625 L 642.5,702.625 L 642.5,655.34375 C 642.50002,655.34372 643.91161,655.3125 648.5625,655.3125 C 654.64198,656.0268 659.46299,657.34617 664.28125,661.65625 C 668.56675,665.48975 672.83482,669.3891 673.90625,678.78125 C 673.90623,694.97494 673.90625,738.125 673.90625,738.125 L 642.5,738.125 L 642.5,720.21875 C 642.63714,712.87625 633.02589,709.46997 626.65625,709.4375 L 619.21875,709.4375 L 619.21875,738.125 L 588.1875,738.125 L 588.1875,655.1875 L 619.21875,655.1875 z"
         style="font-size:12px;font-style:normal;font-weight:normal;fill:#ffffff;fill-opacity:1;stroke:none;stroke-width:1px;stroke-linecap:butt;stroke-linejoin:miter;stroke-opacity:1;font-family:Bitstream Vera Sans" />
      <path
         sodipodi:nodetypes="cccccccscscccccccc"
         id="path2523"
         d="M 535.58867,655.26056 C 527.66494,655.53149 520.80159,657.83177 514.99492,662.16681 C 508.85027,666.82785 505.77616,672.41189 505.77617,678.88556 L 505.77617,714.38556 C 505.77617,720.93315 508.8636,726.54271 515.05742,731.16681 C 521.25121,735.8278 528.62904,738.13549 537.18242,738.13556 L 577.80742,738.10431 C 575.91687,724.61546 564.31412,724.60431 556.79378,724.60431 C 547.85644,724.60431 552.61992,724.60431 552.61992,724.60431 C 548.29407,724.60425 544.56052,723.43476 541.46367,721.10431 C 538.36674,718.77376 536.83863,715.98458 536.83867,712.72931 L 536.83867,673.26056 C 536.83862,670.07922 538.35339,667.3098 541.40117,664.97931 C 544.49803,662.64878 548.24487,661.51055 552.61992,661.51056 L 563.80742,661.41744 L 563.80742,655.26056 L 537.18242,655.26056 C 536.64476,655.26056 536.11692,655.2425 535.58867,655.26056 z"
         style="font-size:12px;font-style:normal;font-weight:normal;fill:#ffffff;fill-opacity:1;stroke:none;stroke-width:1px;stroke-linecap:butt;stroke-linejoin:miter;stroke-opacity:1;font-family:Bitstream Vera Sans" />
      <path
         sodipodi:nodetypes="ccccccccccccscccccccc"
         id="path2528"
         d="M 249.87054,655.26056 C 241.94681,655.53149 235.08346,657.83177 229.27679,662.16681 C 223.13214,666.82785 220.05803,672.41189 220.05804,678.88556 L 220.05804,714.38556 C 220.05804,720.93315 223.14547,726.54271 229.33929,731.16681 C 235.53308,735.8278 242.91091,738.13549 251.46429,738.13556 L 296.08929,738.10431 L 296.13918,702.34432 L 272.57676,702.34432 L 272.37411,709.16285 C 287.50094,709.16285 286.6924,718.69949 286.6924,724.60431 C 277.75506,724.60431 266.90179,724.60431 266.90179,724.60431 C 262.57594,724.60425 258.84239,723.43476 255.74554,721.10431 C 252.64861,718.77376 251.1205,715.98458 251.12054,712.72931 L 251.12054,673.26056 C 251.12049,670.07922 252.63526,667.3098 255.68304,664.97931 C 258.7799,662.64878 262.52674,661.51055 266.90179,661.51056 L 282.08929,661.41744 L 282.08929,655.26056 L 251.46429,655.26056 C 250.92663,655.26056 250.39879,655.2425 249.87054,655.26056 z"
         style="font-size:12px;font-style:normal;font-weight:normal;fill:#ffffff;fill-opacity:1;stroke:none;stroke-width:1px;stroke-linecap:butt;stroke-linejoin:miter;stroke-opacity:1;font-family:Bitstream Vera Sans" />
    </g>
  </g>
</svg>
