<?xml version="1.0" encoding="UTF-8" standalone="no"?>
<!-- Created with Inkscape (http://www.inkscape.org/) -->
<svg
   xmlns:dc="http://purl.org/dc/elements/1.1/"
   xmlns:cc="http://creativecommons.org/ns#"
   xmlns:rdf="http://www.w3.org/1999/02/22-rdf-syntax-ns#"
   xmlns:svg="http://www.w3.org/2000/svg"
   xmlns="http://www.w3.org/2000/svg"
   xmlns:sodipodi="http://sodipodi.sourceforge.net/DTD/sodipodi-0.dtd"
   xmlns:inkscape="http://www.inkscape.org/namespaces/inkscape"
   width="744.09448819"
   height="1052.3622047"
   id="svg2467"
   sodipodi:version="0.32"
   inkscape:version="0.46"
   sodipodi:docname="credits.svg"
   inkscape:output_extension="org.inkscape.output.svg.inkscape">
  <defs
     id="defs2469">
    <inkscape:perspective
       sodipodi:type="inkscape:persp3d"
       inkscape:vp_x="0 : 526.18109 : 1"
       inkscape:vp_y="0 : 1000 : 0"
       inkscape:vp_z="744.09448 : 526.18109 : 1"
       inkscape:persp3d-origin="372.04724 : 350.78739 : 1"
       id="perspective2475" />
  </defs>
  <sodipodi:namedview
     id="base"
     pagecolor="#ffffff"
     bordercolor="#666666"
     borderopacity="1.0"
     gridtolerance="10000"
     guidetolerance="10"
     objecttolerance="10"
     inkscape:pageopacity="0.0"
     inkscape:pageshadow="2"
     inkscape:zoom="1.4"
     inkscape:cx="258.74847"
     inkscape:cy="501.30323"
     inkscape:document-units="px"
     inkscape:current-layer="layer1"
     showgrid="false"
     showguides="true"
     inkscape:guide-bbox="true"
     inkscape:window-width="1280"
     inkscape:window-height="753"
     inkscape:window-x="-4"
     inkscape:window-y="-4" />
  <metadata
     id="metadata2472">
    <rdf:RDF>
      <cc:Work
         rdf:about="">
        <dc:format>image/svg+xml</dc:format>
        <dc:type
           rdf:resource="http://purl.org/dc/dcmitype/StillImage" />
      </cc:Work>
    </rdf:RDF>
  </metadata>
  <g
     inkscape:label="Layer 1"
     inkscape:groupmode="layer"
     id="layer1">
    <rect
       style="fill:#000000"
       id="rect2477"
       width="700.03571"
       height="456.29156"
       x="23.233509"
       y="393.72241" />
    <g
       id="g2563"
       transform="translate(50,0)">
      <path
         style="font-size:12px;font-style:normal;font-weight:normal;fill:#ffffff;fill-opacity:1;stroke:none;stroke-width:1px;stroke-linecap:butt;stroke-linejoin:miter;stroke-opacity:1;font-family:Bitstream Vera Sans"
         d="M 394.18233,469.47268 L 438.80068,469.47268 C 447.40322,469.47268 454.80136,471.78471 460.99514,476.40875 C 467.1398,481.06976 468.50417,487.04541 470.21212,493.11077 C 473.54545,504.94831 479.92439,522.89484 480.21212,528.62339 C 480.54948,535.34001 477.11522,540.75682 470.9214,545.38092 C 464.72763,550.04188 457.35406,552.37239 448.80068,552.37246 L 394.18233,552.31562 L 394.18233,469.47268 M 425.59378,538.81896 L 451.37323,538.81896 C 455.69911,538.81888 459.41049,537.65363 462.50734,535.32318 C 465.60428,532.9926 467.95239,530.09993 467.15269,526.94442 L 457.15269,487.48595 C 456.14258,485.31474 455.62885,481.54866 452.58107,479.21817 C 449.48422,476.88764 445.74828,475.72238 441.37323,475.72239 C 436.99831,475.72238 433.28694,476.88764 430.23913,479.21817 C 427.14231,481.54866 425.59385,484.30459 425.59378,487.48595 L 425.59378,538.81896"
         id="path2497"
         sodipodi:nodetypes="cccssccccccssccsccc" />
      <path
         style="font-size:12px;font-style:normal;font-weight:normal;fill:#ffffff;fill-opacity:1;stroke:none;stroke-width:1px;stroke-linecap:butt;stroke-linejoin:miter;stroke-opacity:1;font-family:Bitstream Vera Sans"
         d="M 224.4588,469.50966 L 224.4588,552.37246 L 255.87844,552.37246 L 255.87844,534.46201 C 255.74132,527.1195 265.36199,523.70505 271.73163,523.67258 L 280.10629,523.67444 L 280.11928,516.96173 L 271.6497,516.85983 L 255.87844,516.85983 L 255.87844,487.75312 C 256.5322,481.21814 262.67217,476.14164 271.6497,475.97724 L 293.27886,476.04258 C 292.95875,468.65576 286.22532,469.4985 276.53079,469.50966 L 224.4588,469.50966 z"
         id="path2499"
         sodipodi:nodetypes="cccccccccccccc" />
      <path
         style="font-size:12px;font-style:normal;font-weight:normal;fill:#ffffff;fill-opacity:1;stroke:none;stroke-width:1px;stroke-linecap:butt;stroke-linejoin:miter;stroke-opacity:1;font-family:Bitstream Vera Sans"
         d="M 131.56819,469.50968 L 176.18654,469.50968 C 184.78909,469.50968 192.18723,471.8217 198.38101,476.44574 C 204.52567,481.10676 207.59799,486.67409 207.59798,493.14776 L 207.59798,506.95823 C 207.7887,521.3482 181.75436,524.61837 176.18654,524.78853 C 170.62129,524.95861 162.97964,525.1577 162.97964,536.42816 L 162.97964,552.37246 L 131.56819,552.37246 L 131.56819,469.50968 M 162.97964,518.83276 L 178.7591,518.83276 C 183.08498,518.83269 186.79635,517.66743 189.8932,515.33699 C 192.99014,513.00642 194.53859,510.2135 194.53855,506.95823 L 194.53855,488.06039 C 194.53859,484.87904 193.01472,482.1231 189.96694,479.79261 C 186.87009,477.46209 183.13414,476.29683 178.7591,476.29683 C 169.78158,476.46125 163.63341,481.5254 162.97964,488.06039 L 162.97964,518.83276"
         id="path2503"
         sodipodi:nodetypes="ccccczccccccscccccc" />
      <path
         style="font-size:12px;font-style:normal;font-weight:normal;fill:#ffffff;fill-opacity:1;stroke:none;stroke-width:1px;stroke-linecap:butt;stroke-linejoin:miter;stroke-opacity:1;font-family:Bitstream Vera Sans"
         d="M 309.15048,469.50966 L 309.15048,552.37246 L 340.57012,552.37246 C 340.57012,552.37246 369.58947,552.59227 377.39601,552.23799 C 376.7852,545.57069 372.72109,538.73508 361.08741,538.73508 C 355.1172,538.73508 340.57012,538.73508 340.57012,538.73508 L 340.57012,534.46201 C 340.43301,527.1195 350.05367,523.70505 356.42332,523.67258 L 364.79797,523.67444 L 364.81097,516.96173 L 356.34139,516.85983 L 340.57012,516.85983 L 340.57012,487.75312 C 341.22389,481.21814 347.36385,476.14164 356.34139,475.97724 L 377.97055,476.04258 C 377.65044,468.65576 370.917,469.4985 361.22248,469.50966 L 309.15048,469.50966 z"
         id="path2505"
         sodipodi:nodetypes="ccccscccccccccccc" />
      <path
         sodipodi:nodetypes="cccccccccsscc"
         id="path2507"
         d="M 81.807244,439.6878 L 81.807244,408.68043 L 113.21869,408.68043 L 113.21869,439.6878 L 81.807244,439.6878 M 17.95197,552.91418 C 27.166893,552.91418 63.807244,552.91418 63.807244,552.91418 L 81.807244,468.42837 L 113.21869,468.42837 C 113.21869,468.42837 104.26945,524.45151 99.21869,545.33928 C 95.20914,561.92104 87.9021,566.37246 72.426804,566.37246 C 69.755292,566.37246 63.521768,566.37246 63.521768,566.37246 L -0.630892,566.37246"
         style="font-size:12px;font-style:normal;font-weight:normal;fill:#ffffff;fill-opacity:1;stroke:none;stroke-width:1px;stroke-linecap:butt;stroke-linejoin:miter;stroke-opacity:1;font-family:Bitstream Vera Sans" />
    </g>
    <g
       id="g2570"
       transform="matrix(0.8491055,0,0,0.8491055,101.56997,144.23772)">
      <path
         style="font-size:12px;font-style:normal;font-weight:normal;fill:#ffffff;fill-opacity:1;stroke:none;stroke-width:1px;stroke-linecap:butt;stroke-linejoin:miter;stroke-opacity:1;font-family:Bitstream Vera Sans"
         d="M 133.48003,655.23577 L 178.09838,655.23577 C 186.70092,655.23577 194.09906,657.5478 200.29284,662.17184 C 206.4375,666.83285 209.50983,672.40019 209.50982,678.87386 L 209.50982,714.38648 C 209.50983,720.93406 206.41292,726.51991 200.2191,731.14401 C 194.02533,735.80497 186.65176,738.13548 178.09838,738.13555 L 115.81438,738.07871 L 143.15408,655.23577 M 164.89148,724.58205 L 180.67093,724.58205 C 184.99681,724.58197 188.70819,723.41672 191.80504,721.08627 C 194.90198,718.75569 196.45043,715.96278 196.45039,712.70751 L 196.45039,673.24904 C 196.45043,670.06768 194.92655,667.31175 191.87877,664.98126 C 188.78192,662.65073 185.04598,661.48547 180.67093,661.48548 C 176.29601,661.48547 172.58464,662.65073 169.53683,664.98126 C 166.44001,667.31175 164.89155,670.06768 164.89148,673.24904 L 148.48766,724.58205"
         id="path2511"
         sodipodi:nodetypes="cccccccccccscccsccc" />
      <path
         style="font-size:12px;font-style:normal;font-weight:normal;fill:#ffffff;fill-opacity:1;stroke:none;stroke-width:1px;stroke-linecap:butt;stroke-linejoin:miter;stroke-opacity:1;font-family:Bitstream Vera Sans"
         d="M 307.94204,655.27276 L 307.94204,738.13556 L 339.36168,738.13556 L 339.36168,720.22511 C 339.22456,712.8826 348.84523,709.46815 355.21487,709.43568 L 363.58953,709.43754 L 363.60252,702.72483 L 355.13294,702.62293 L 339.36168,702.62293 L 339.36168,673.51622 C 340.01544,666.98124 346.15541,661.90474 355.13294,661.74034 L 376.7621,661.80568 C 376.44199,654.41886 369.70856,655.2616 360.01403,655.27276 L 307.94204,655.27276 z"
         id="path2513"
         sodipodi:nodetypes="cccccccccccccc" />
      <path
         sodipodi:nodetypes="cccccccccc"
         id="path2515"
         d="M 386.86066,626.76972 L 386.86066,596.12525 L 417.90448,596.12525 L 417.90448,626.76972 L 386.86066,626.76972 M 386.86066,738.13556 L 386.86066,655.17391 L 417.90448,655.17391 L 417.90448,738.13556 L 386.86066,738.13556"
         style="font-size:12px;font-style:normal;font-weight:normal;fill:#ffffff;fill-opacity:1;stroke:none;stroke-width:1px;stroke-linecap:butt;stroke-linejoin:miter;stroke-opacity:1;font-family:Bitstream Vera Sans" />
      <path
         style="font-size:12px;font-style:normal;font-weight:normal;fill:#ffffff;fill-opacity:1;stroke:none;stroke-width:1px;stroke-linecap:butt;stroke-linejoin:miter;stroke-opacity:1;font-family:Bitstream Vera Sans"
         d="M 501.0132,655.28007 L 501.0132,661.57357 L 480.82251,661.57357 L 480.82251,738.13556 L 449.40558,738.13556 L 449.40558,673.52358 C 448.75191,666.98917 442.61253,661.73798 433.63577,661.57357 L 428.75509,661.57357 L 428.75509,655.28007 L 501.0132,655.28007 z"
         id="path2517"
         sodipodi:nodetypes="cccccccccc" />
      <path
         id="path2519"
         d="M 642.875,655.1875 L 642.875,702.71875 L 635.375,702.625 L 619.59375,702.625 L 619.59375,655.34375 C 619.59373,655.34372 618.18214,655.3125 613.53125,655.3125 C 607.45177,656.0268 602.63076,657.34617 597.8125,661.65625 C 593.527,665.48975 589.25893,669.3891 588.1875,678.78125 C 588.18752,694.97494 588.1875,738.125 588.1875,738.125 L 619.59375,738.125 L 619.59375,720.21875 C 619.45661,712.87625 629.06786,709.46997 635.4375,709.4375 L 642.875,709.4375 L 642.875,738.125 L 655.06289,738.125 L 655.06289,655.1875 L 642.875,655.1875 z"
         style="font-size:12px;font-style:normal;font-weight:normal;fill:#ffffff;fill-opacity:1;stroke:none;stroke-width:1px;stroke-linecap:butt;stroke-linejoin:miter;stroke-opacity:1;font-family:Bitstream Vera Sans"
         sodipodi:nodetypes="ccccccscccccccccc" />
      <path
         sodipodi:nodetypes="cccccccscscccccccc"
         id="path2523"
         d="M 535.58867,655.26056 C 527.66494,655.53149 520.80159,657.83177 514.99492,662.16681 C 508.85027,666.82785 505.77616,672.41189 505.77617,678.88556 L 505.77617,714.38556 C 505.77617,720.93315 508.8636,726.54271 515.05742,731.16681 C 521.25121,735.8278 528.62904,738.13549 537.18242,738.13556 L 577.80742,738.10431 C 575.91687,724.61546 564.31412,724.60431 556.79378,724.60431 C 547.85644,724.60431 552.61992,724.60431 552.61992,724.60431 C 548.29407,724.60425 544.56052,723.43476 541.46367,721.10431 C 538.36674,718.77376 536.83863,715.98458 536.83867,712.72931 L 536.83867,673.26056 C 536.83862,670.07922 538.35339,667.3098 541.40117,664.97931 C 544.49803,662.64878 548.24487,661.51055 552.61992,661.51056 L 563.80742,661.41744 L 563.80742,655.26056 L 537.18242,655.26056 C 536.64476,655.26056 536.11692,655.2425 535.58867,655.26056 z"
         style="font-size:12px;font-style:normal;font-weight:normal;fill:#ffffff;fill-opacity:1;stroke:none;stroke-width:1px;stroke-linecap:butt;stroke-linejoin:miter;stroke-opacity:1;font-family:Bitstream Vera Sans" />
      <path
         sodipodi:nodetypes="ccccccccccccscccccccc"
         id="path2528"
         d="M 249.87054,655.26056 C 241.94681,655.53149 235.08346,657.83177 229.27679,662.16681 C 223.13214,666.82785 220.05803,672.41189 220.05804,678.88556 L 220.05804,714.38556 C 220.05804,720.93315 223.14547,726.54271 229.33929,731.16681 C 235.53308,735.8278 242.91091,738.13549 251.46429,738.13556 L 296.08929,738.10431 L 284.36208,702.34432 L 260.79966,702.34432 L 260.59701,709.16285 C 275.72384,709.16285 279.62614,718.69949 279.62614,724.60431 C 270.6888,724.60431 266.90179,724.60431 266.90179,724.60431 C 262.57594,724.60425 258.84239,723.43476 255.74554,721.10431 C 252.64861,718.77376 251.1205,715.98458 251.12054,712.72931 L 251.12054,673.26056 C 251.12049,670.07922 252.63526,667.3098 255.68304,664.97931 C 258.7799,662.64878 262.52674,661.51055 266.90179,661.51056 L 282.08929,661.41744 L 282.08929,655.26056 L 251.46429,655.26056 C 250.92663,655.26056 250.39879,655.2425 249.87054,655.26056 z"
         style="font-size:12px;font-style:normal;font-weight:normal;fill:#ffffff;fill-opacity:1;stroke:none;stroke-width:1px;stroke-linecap:butt;stroke-linejoin:miter;stroke-opacity:1;font-family:Bitstream Vera Sans" />
    </g>
  </g>
</svg>
